<svg width="37" height="36" viewBox="0 0 37 36" fill="none" xmlns="http://www.w3.org/2000/svg">
<path d="M14.439 14.7692C12.4537 14.7692 10.7541 14.0462 9.34024 12.6C7.92642 11.1538 7.21951 9.41538 7.21951 7.38462C7.21951 5.35385 7.92642 3.61539 9.34024 2.16923C10.7541 0.723077 12.4537 0 14.439 0C16.4244 0 18.124 0.723077 19.5378 2.16923C20.9516 3.61539 21.6585 5.35385 21.6585 7.38462C21.6585 9.41538 20.9516 11.1538 19.5378 12.6C18.124 14.0462 16.4244 14.7692 14.439 14.7692ZM34.4732 36L28.6976 30.0923C28.0659 30.4615 27.389 30.7692 26.6671 31.0154C25.9451 31.2615 25.178 31.3846 24.3659 31.3846C22.1098 31.3846 20.1924 30.5772 18.6137 28.9625C17.035 27.3477 16.2451 25.3858 16.2439 23.0769C16.2439 20.7692 17.0338 18.808 18.6137 17.1932C20.1936 15.5785 22.111 14.7705 24.3659 14.7692C26.622 14.7692 28.5399 15.5772 30.1198 17.1932C31.6997 18.8092 32.489 20.7705 32.4878 23.0769C32.4878 23.9077 32.3675 24.6923 32.1268 25.4308C31.8862 26.1692 31.5854 26.8615 31.2244 27.5077L37 33.4154L34.4732 36ZM24.3659 27.6923C25.6293 27.6923 26.6972 27.2462 27.5695 26.3538C28.4419 25.4615 28.878 24.3692 28.878 23.0769C28.878 21.7846 28.4419 20.6923 27.5695 19.8C26.6972 18.9077 25.6293 18.4615 24.3659 18.4615C23.1024 18.4615 22.0346 18.9077 21.1622 19.8C20.2898 20.6923 19.8537 21.7846 19.8537 23.0769C19.8537 24.3692 20.2898 25.4615 21.1622 26.3538C22.0346 27.2462 23.1024 27.6923 24.3659 27.6923ZM14.4841 16.6154C13.2207 18.5231 12.589 20.6769 12.589 23.0769C12.589 25.4769 13.2207 27.6308 14.4841 29.5385H0V24.4154C0 23.3692 0.255691 22.4 0.767073 21.5077C1.27846 20.6154 1.98537 19.9385 2.8878 19.4769C4.42195 18.6769 6.15163 18 8.07683 17.4462C10.002 16.8923 12.1378 16.6154 14.4841 16.6154Z" fill="#1521A4"/>
</svg>
