<svg width="30" height="30" viewBox="0 0 30 30" fill="none" xmlns="http://www.w3.org/2000/svg">
<path d="M15 30C12.925 30 10.975 29.606 9.15 28.818C7.325 28.03 5.7375 26.9615 4.3875 25.6125C3.0375 24.2625 1.969 22.675 1.182 20.85C0.395 19.025 0.001 17.075 0 15C0 12.925 0.394 10.975 1.182 9.15C1.97 7.325 3.0385 5.7375 4.3875 4.3875C5.7375 3.0375 7.325 1.969 9.15 1.182C10.975 0.395 12.925 0.001 15 0C17.075 0 19.025 0.394 20.85 1.182C22.675 1.97 24.2625 3.0385 25.6125 4.3875C26.9625 5.7375 28.0315 7.325 28.8195 9.15C29.6075 10.975 30.001 12.925 30 15C30 17.075 29.606 19.025 28.818 20.85C28.03 22.675 26.9615 24.2625 25.6125 25.6125C24.2625 26.9625 22.675 28.0315 20.85 28.8195C19.025 29.6075 17.075 30.001 15 30ZM10.5 22.5H19.5V19.5H13.5V16.5H16.5C17.325 16.5 18.0315 16.2065 18.6195 15.6195C19.2075 15.0325 19.501 14.326 19.5 13.5V10.5C19.5 9.675 19.2065 8.969 18.6195 8.382C18.0325 7.795 17.326 7.501 16.5 7.5H10.5V10.5H16.5V13.5H13.5C12.675 13.5 11.969 13.794 11.382 14.382C10.795 14.97 10.501 15.676 10.5 16.5V22.5Z" fill="#1521A4"/>
</svg>
